<mxfile host="app.diagrams.net" modified="2022-03-28T01:58:32.607Z" agent="5.0 (Macintosh; Intel Mac OS X 10_15_7) AppleWebKit/537.36 (KHTML, like Gecko) Chrome/99.0.4844.51 Safari/537.36" etag="Xz-w377oUhiUJKYyk85B" version="17.1.3" type="github">
  <diagram id="3228e29e-7158-1315-38df-8450db1d8a1d" name="Page-1">
    <mxGraphModel dx="1129" dy="77" grid="0" gridSize="10" guides="1" tooltips="1" connect="1" arrows="1" fold="1" page="1" pageScale="1" pageWidth="520" pageHeight="270" background="#EFF1F3" math="0" shadow="0">
      <root>
        <mxCell id="0" />
        <mxCell id="1" parent="0" />
        <mxCell id="g9KwYvelNcx-eXB0xMGi-4" value="" style="shape=flexArrow;endArrow=classic;startArrow=classic;html=1;rounded=0;fontSize=16;fontColor=#000000;strokeColor=none;fillColor=#FDD276;" parent="1" edge="1">
          <mxGeometry width="100" height="100" relative="1" as="geometry">
            <mxPoint x="244" y="749.5" as="sourcePoint" />
            <mxPoint x="313" y="749.5" as="targetPoint" />
          </mxGeometry>
        </mxCell>
        <mxCell id="spV6VU4cGSJD96CcmEE0-4" value="&lt;font color=&quot;#ffffff&quot;&gt;&lt;span style=&quot;font-size: 16px&quot;&gt;&lt;br&gt;&lt;/span&gt;&lt;/font&gt;" style="whiteSpace=wrap;html=1;aspect=fixed;rounded=1;strokeColor=none;fillColor=#4A919B;" parent="1" vertex="1">
          <mxGeometry x="155" y="710" width="80" height="80" as="geometry" />
        </mxCell>
        <mxCell id="spV6VU4cGSJD96CcmEE0-6" value="数据" style="rounded=1;whiteSpace=wrap;html=1;fillColor=#9AC7BF;strokeColor=default;fontColor=#000000;align=center;" parent="1" vertex="1">
          <mxGeometry x="178" y="732" width="50" height="17" as="geometry" />
        </mxCell>
        <mxCell id="spV6VU4cGSJD96CcmEE0-12" value="&lt;font color=&quot;#ffffff&quot;&gt;页号100&lt;/font&gt;" style="text;html=1;strokeColor=none;fillColor=none;align=center;verticalAlign=middle;whiteSpace=wrap;rounded=0;dashed=1;fontColor=#535E80;" parent="1" vertex="1">
          <mxGeometry x="167" y="710" width="55" height="22" as="geometry" />
        </mxCell>
        <mxCell id="BJRcYlKcCAD2B9d3_ZLO-3" value="" style="shape=flexArrow;endArrow=classic;html=1;rounded=0;fontColor=#FFFFFF;strokeColor=none;fillColor=#FDD276;" parent="1" edge="1">
          <mxGeometry width="50" height="50" relative="1" as="geometry">
            <mxPoint x="257.6500000000003" y="665" as="sourcePoint" />
            <mxPoint x="225.5" y="697" as="targetPoint" />
          </mxGeometry>
        </mxCell>
        <mxCell id="BJRcYlKcCAD2B9d3_ZLO-4" value="" style="shape=flexArrow;endArrow=classic;html=1;rounded=0;fontColor=#FFFFFF;strokeColor=none;fillColor=#FDD276;" parent="1" edge="1">
          <mxGeometry width="50" height="50" relative="1" as="geometry">
            <mxPoint x="296.6500000000001" y="665" as="sourcePoint" />
            <mxPoint x="329.4999999999998" y="697" as="targetPoint" />
          </mxGeometry>
        </mxCell>
        <mxCell id="SSU85J6YOylga-3CZ0uj-2" value="&lt;font&gt;1&lt;/font&gt;" style="rounded=1;whiteSpace=wrap;html=1;fillColor=#9AC7BF;strokeColor=default;fontColor=#000000;" parent="1" vertex="1">
          <mxGeometry x="162.25" y="732" width="15.75" height="17" as="geometry" />
        </mxCell>
        <mxCell id="SSU85J6YOylga-3CZ0uj-3" value="数据" style="rounded=1;whiteSpace=wrap;html=1;fillColor=#9AC7BF;strokeColor=default;fontColor=#000000;align=center;" parent="1" vertex="1">
          <mxGeometry x="178" y="749" width="50" height="17" as="geometry" />
        </mxCell>
        <mxCell id="SSU85J6YOylga-3CZ0uj-4" value="&lt;font&gt;2&lt;/font&gt;" style="rounded=1;whiteSpace=wrap;html=1;fillColor=#9AC7BF;strokeColor=default;fontColor=#000000;" parent="1" vertex="1">
          <mxGeometry x="162.25" y="749" width="15.75" height="17" as="geometry" />
        </mxCell>
        <mxCell id="SSU85J6YOylga-3CZ0uj-5" value="数据" style="rounded=1;whiteSpace=wrap;html=1;fillColor=#9AC7BF;strokeColor=default;fontColor=#000000;align=center;" parent="1" vertex="1">
          <mxGeometry x="178" y="766" width="50" height="17" as="geometry" />
        </mxCell>
        <mxCell id="SSU85J6YOylga-3CZ0uj-6" value="&lt;font&gt;3&lt;/font&gt;" style="rounded=1;whiteSpace=wrap;html=1;fillColor=#9AC7BF;strokeColor=default;fontColor=#000000;" parent="1" vertex="1">
          <mxGeometry x="162.25" y="766" width="15.75" height="17" as="geometry" />
        </mxCell>
        <mxCell id="SSU85J6YOylga-3CZ0uj-8" value="&lt;font color=&quot;#ffffff&quot;&gt;&lt;span style=&quot;font-size: 16px&quot;&gt;&lt;br&gt;&lt;/span&gt;&lt;/font&gt;" style="whiteSpace=wrap;html=1;aspect=fixed;rounded=1;strokeColor=none;fillColor=#4A919B;" parent="1" vertex="1">
          <mxGeometry x="320" y="710" width="80" height="80" as="geometry" />
        </mxCell>
        <mxCell id="SSU85J6YOylga-3CZ0uj-9" value="数据" style="rounded=1;whiteSpace=wrap;html=1;fillColor=#9AC7BF;strokeColor=default;fontColor=#000000;align=center;" parent="1" vertex="1">
          <mxGeometry x="343" y="732" width="50" height="17" as="geometry" />
        </mxCell>
        <mxCell id="SSU85J6YOylga-3CZ0uj-10" value="&lt;font color=&quot;#ffffff&quot;&gt;页号105&lt;/font&gt;" style="text;html=1;strokeColor=none;fillColor=none;align=center;verticalAlign=middle;whiteSpace=wrap;rounded=0;dashed=1;fontColor=#535E80;" parent="1" vertex="1">
          <mxGeometry x="332" y="710" width="55" height="22" as="geometry" />
        </mxCell>
        <mxCell id="SSU85J6YOylga-3CZ0uj-11" value="&lt;font&gt;4&lt;/font&gt;" style="rounded=1;whiteSpace=wrap;html=1;fillColor=#9AC7BF;strokeColor=default;fontColor=#000000;" parent="1" vertex="1">
          <mxGeometry x="327.25" y="732" width="15.75" height="17" as="geometry" />
        </mxCell>
        <mxCell id="SSU85J6YOylga-3CZ0uj-12" value="数据" style="rounded=1;whiteSpace=wrap;html=1;fillColor=#9AC7BF;strokeColor=default;fontColor=#000000;align=center;" parent="1" vertex="1">
          <mxGeometry x="343" y="749" width="50" height="17" as="geometry" />
        </mxCell>
        <mxCell id="SSU85J6YOylga-3CZ0uj-13" value="&lt;font&gt;5&lt;/font&gt;" style="rounded=1;whiteSpace=wrap;html=1;fillColor=#9AC7BF;strokeColor=default;fontColor=#000000;" parent="1" vertex="1">
          <mxGeometry x="327.25" y="749" width="15.75" height="17" as="geometry" />
        </mxCell>
        <mxCell id="SSU85J6YOylga-3CZ0uj-14" value="数据" style="rounded=1;whiteSpace=wrap;html=1;fillColor=#9AC7BF;strokeColor=default;fontColor=#000000;align=center;" parent="1" vertex="1">
          <mxGeometry x="343" y="766" width="50" height="17" as="geometry" />
        </mxCell>
        <mxCell id="SSU85J6YOylga-3CZ0uj-15" value="&lt;font&gt;6&lt;/font&gt;" style="rounded=1;whiteSpace=wrap;html=1;fillColor=#9AC7BF;strokeColor=default;fontColor=#000000;" parent="1" vertex="1">
          <mxGeometry x="327.25" y="766" width="15.75" height="17" as="geometry" />
        </mxCell>
        <mxCell id="SSU85J6YOylga-3CZ0uj-50" value="&lt;font color=&quot;#ffffff&quot;&gt;&lt;span style=&quot;font-size: 16px&quot;&gt;&lt;br&gt;&lt;/span&gt;&lt;/font&gt;" style="whiteSpace=wrap;html=1;aspect=fixed;rounded=1;strokeColor=none;fillColor=#67AB9F;" parent="1" vertex="1">
          <mxGeometry x="238" y="573" width="80" height="80" as="geometry" />
        </mxCell>
        <mxCell id="SSU85J6YOylga-3CZ0uj-51" value="页号100" style="rounded=1;whiteSpace=wrap;html=1;fillColor=#9AC7BF;strokeColor=default;fontColor=#000000;align=center;" parent="1" vertex="1">
          <mxGeometry x="260.88" y="601" width="50" height="17" as="geometry" />
        </mxCell>
        <mxCell id="SSU85J6YOylga-3CZ0uj-52" value="&lt;font color=&quot;#ffffff&quot;&gt;页号6&lt;/font&gt;" style="text;html=1;strokeColor=none;fillColor=none;align=center;verticalAlign=middle;whiteSpace=wrap;rounded=0;dashed=1;fontColor=#535E80;" parent="1" vertex="1">
          <mxGeometry x="250" y="573" width="55" height="22" as="geometry" />
        </mxCell>
        <mxCell id="SSU85J6YOylga-3CZ0uj-53" value="&lt;font&gt;1&lt;/font&gt;" style="rounded=1;whiteSpace=wrap;html=1;fillColor=#9AC7BF;strokeColor=default;fontColor=#000000;" parent="1" vertex="1">
          <mxGeometry x="245.13" y="601" width="15.75" height="17" as="geometry" />
        </mxCell>
        <mxCell id="SSU85J6YOylga-3CZ0uj-54" value="页号105" style="rounded=1;whiteSpace=wrap;html=1;fillColor=#9AC7BF;strokeColor=default;fontColor=#000000;align=center;" parent="1" vertex="1">
          <mxGeometry x="260.88" y="618" width="50" height="17" as="geometry" />
        </mxCell>
        <mxCell id="SSU85J6YOylga-3CZ0uj-55" value="&lt;font&gt;4&lt;/font&gt;" style="rounded=1;whiteSpace=wrap;html=1;fillColor=#9AC7BF;strokeColor=default;fontColor=#000000;" parent="1" vertex="1">
          <mxGeometry x="245.13" y="618" width="15.75" height="17" as="geometry" />
        </mxCell>
        <mxCell id="SSU85J6YOylga-3CZ0uj-74" value="" style="shape=curlyBracket;whiteSpace=wrap;html=1;rounded=1;flipH=1;fontColor=#000000;fillColor=none;fontSize=5;strokeWidth=3;strokeColor=#4A919B;" parent="1" vertex="1">
          <mxGeometry x="407" y="732" width="20" height="53" as="geometry" />
        </mxCell>
        <mxCell id="SSU85J6YOylga-3CZ0uj-75" value="&lt;font style=&quot;font-size: 28px&quot;&gt;Y&lt;/font&gt;" style="text;html=1;strokeColor=none;fillColor=none;align=center;verticalAlign=middle;whiteSpace=wrap;rounded=0;fontColor=#4A919B;" parent="1" vertex="1">
          <mxGeometry x="430" y="735.5" width="47" height="44" as="geometry" />
        </mxCell>
        <mxCell id="gkCxXJgKBJelah2M9cAv-1" value="" style="shape=curlyBracket;whiteSpace=wrap;html=1;rounded=1;flipH=1;fontColor=#000000;fillColor=none;fontSize=5;strokeWidth=3;strokeColor=#67AB9F;" parent="1" vertex="1">
          <mxGeometry x="332" y="599.5" width="20" height="40" as="geometry" />
        </mxCell>
        <mxCell id="gkCxXJgKBJelah2M9cAv-2" value="&lt;font color=&quot;#67ab9f&quot; style=&quot;font-size: 28px&quot;&gt;X&lt;/font&gt;" style="text;html=1;strokeColor=none;fillColor=none;align=center;verticalAlign=middle;whiteSpace=wrap;rounded=0;fontColor=#4A919B;" parent="1" vertex="1">
          <mxGeometry x="358.5" y="597.5" width="39.5" height="44" as="geometry" />
        </mxCell>
        <mxCell id="E3lQJ2ZPOACURIquYWGX-2" value="" style="shape=curlyBracket;whiteSpace=wrap;html=1;rounded=1;fontSize=28;strokeWidth=3;fillColor=none;strokeColor=#535E80;" parent="1" vertex="1">
          <mxGeometry x="124" y="589" width="20" height="184" as="geometry" />
        </mxCell>
        <mxCell id="E3lQJ2ZPOACURIquYWGX-3" value="&lt;font color=&quot;#535e80&quot; style=&quot;font-size: 24px&quot;&gt;层数 Z&lt;/font&gt;" style="text;html=1;strokeColor=none;fillColor=none;align=center;verticalAlign=middle;whiteSpace=wrap;rounded=0;fontSize=28;" parent="1" vertex="1">
          <mxGeometry x="34" y="666" width="88" height="30" as="geometry" />
        </mxCell>
      </root>
    </mxGraphModel>
  </diagram>
</mxfile>
